# xmcd
#
# Track frame offsets:
#	150
#	12399
#	27358
#	41214
#	52566
#	70595
#	82439
#	96924
#	116263
#	127685
#	141459
#	155287
#	179120
#	193297
#	215555
#	229653
#
# Disc length: 3286
#
# Revision: 2
# Processed by: cddbd v1.5.1PL0 Copyright (c) Steve Scherf et al.
# Submitted via: CDex 1.50beta9
# Normalized: r0:DSETVAR1,TDELIM( - ),TSWAP
#
DISCID=e20cd410
DTITLE=Various Artist - The Best Of FM Golden Jazz
DYEAR=2002
DGENRE=Jazz
TTITLE0=Dinah Washington - Unforgettable
TTITLE1=Duke Ellington - I Got It Bad (And That Ain't Good)
TTITLE2=Louis Armstrong - Give Me A Kiss To Build A Dream On
TTITLE3=Dinah Washington - What A Diff'rence A day Makes
TTITLE4=Nat King Cole - Body And Soul
TTITLE5=Dinah Washington - Harbor Lights
TTITLE6=Ella Fitzgerald and Louis Armstrong - The Frim Fram Sauce
TTITLE7=Al Jarreau - Sophisticated Lady
TTITLE8=Lena Horne - Deed I Do
TTITLE9=Duke Ellington - Prelude To A Kiss
TTITLE10=Carmen McRae - My Funny Valentine
TTITLE11=Milt Jackson - A Time For Love
TTITLE12=Charlie Parker - Out Of Nowhere
TTITLE13=Harry 'Sweets' Edison and Eddie 'Lockjaw' Davis - But Beautiful
TTITLE14=Billie Holiday - Strange Fruit
TTITLE15=Stan Getz and Paul Horn - Nature Boy
EXTD=YEAR: 2002
EXTT0=
EXTT1=
EXTT2=
EXTT3=
EXTT4=
EXTT5=
EXTT6=
EXTT7=
EXTT8=
EXTT9=
EXTT10=
EXTT11=
EXTT12=
EXTT13=
EXTT14=
EXTT15=
PLAYORDER=
